#N canvas 564 172 642 485 12;
#X obj 162 37 netreceive 5001;
#X obj 127 140 print;
#X obj 235 169 osc~;
#X obj 144 300 dac~;
#X text 291 40 listen on tcp port 5001;
#X text 309 212 to audio output;
#X obj 143 242 *~;
#X obj 236 245 hsl 128 15 0 1 0 0 empty empty empty -2 -8 0 10 -262144
-1 -1 0 1;
#X obj 162 78 route 39;
#X connect 0 0 8 0;
#X connect 2 0 6 0;
#X connect 6 0 3 0;
#X connect 6 0 3 1;
#X connect 7 0 6 1;
#X connect 8 0 1 0;
